# xmcd CD database file
#
# Track frame offsets:
#	150
#	24750
#	56115
#	87485
#	96288
#	120025
#	139828
#	163645
#	199970
#
# Disc length: 2895 seconds
#
# Revision: 0
# Processed by: cddbd v1.5.1PL0 Copyright (c) Steve Scherf et al.
# Submitted via: CDex 1.51
#
DISCID=710b4d09
DTITLE=Eric Teruel Trio - Dreams From The Real World
DYEAR=2004
DGENRE=Jazz
TTITLE0=Ausencia
TTITLE1=Outsider
TTITLE2=Empty Dress
TTITLE3=Dreams from the Real World
TTITLE4=Straight and Winding
TTITLE5=Unnamed Lake
TTITLE6=Self On Sea
TTITLE7=Hi World, Our World
TTITLE8=Sue's Dilemma, Jude's Renouncement
EXTD=YEAR: 2004
EXTT0=
EXTT1=
EXTT2=
EXTT3=
EXTT4=
EXTT5=
EXTT6=
EXTT7=
EXTT8=
PLAYORDER=
